<?xml version="1.0" encoding="utf-8"?>
<!-- Generator: Adobe Illustrator 28.0.0, SVG Export Plug-In . SVG Version: 6.00 Build 0)  -->
<svg version="1.1" id="Ebene_1" xmlns="http://www.w3.org/2000/svg" xmlns:xlink="http://www.w3.org/1999/xlink" x="0px" y="0px"
	 viewBox="0 0 1831.2 357.2" style="enable-background:new 0 0 1831.2 357.2;" xml:space="preserve">
<style type="text/css">
	.st0{fill:#181D32;}
	.st1{fill:#E62540;}
</style>
<g id="Design_00000166669601888282966220000010952200842122130318_">
	<path id="Text_00000083785375136535903840000004794934401261097603_" class="st0" d="M1099.6,142.6c-33.4,0-55.9,26.3-55.9,62.9
		s22.3,62,51.8,62c8.5-0.4,16.9-2.1,24.9-5.1v7.8c0,11.5-15.1,18-27.9,18c-12.2-0.8-24.3-2.9-36-6.4V309c12.1,3.5,24.6,5.5,37.2,6.2
		c32.2,0,59.7-16.5,59.7-45.4V155.4C1136.7,146.9,1118.2,142.6,1099.6,142.6z M1104.2,241.4c-14,0-27.9-7.8-27.9-36
		s12.8-36.7,29-36.7c5.2,0.2,10.3,1.3,15.2,3.3v64.9C1115.4,239.5,1109.8,241.1,1104.2,241.4L1104.2,241.4z M971.4,142.1
		c-13.7-0.5-27.1,3.9-37.7,12.5c-5.5,4.7-9.7,10.6-12.3,17.3c-2.6,8.3-3.8,16.9-3.6,25.6v68.6h32.5v-69.9c0-23.8,12.6-26.5,21-26.5
		s21,2.8,21,26.5v69.9h32.6v-68.6c0.4-8.7-0.8-17.3-3.6-25.6c-2.4-6.8-6.6-12.8-11.9-17.6c-10.6-8.5-23.9-13-37.5-12.5 M339.8,266.1
		V93.3h57.4c19.8,0,34.9,4,45.2,12.1c10.5,8.5,16.2,21.5,15.4,35c0.2,7.9-2,15.7-6.1,22.4c-4.1,6.3-10.1,11.2-17.2,14
		c8,1.9,15,6.7,19.8,13.3c4.9,7.3,7.3,16,7,24.7c1,14.2-4.5,28.1-15,37.7c-12.2,9.4-27.3,14.3-42.8,13.6L339.8,266.1L339.8,266.1z
		 M373.5,165.8h24.9c17-0.4,25.5-7.5,25.5-21.4c0.6-6.3-1.8-12.6-6.4-16.9c-6-4-13.2-5.8-20.4-5.2h-23.6L373.5,165.8L373.5,165.8z
		 M373.5,190.9v46.6h29.1c6.7,0.3,13.3-2,18.4-6.4c4.7-4.2,7.2-10.2,7-16.5c0-15.9-7.8-23.9-23.3-24.1L373.5,190.9z M555.1,144.5
		v69.9c0,23.8-11.5,26.5-20.1,26.5c-8.6,0-20-2.8-20-26.5v-69.9h-32.6V213c-0.4,8.5,0.8,17,3.6,25.1c2.7,6.7,7,12.7,12.5,17.3
		c21.5,16.7,51.6,16.7,73.1,0c5.5-4.6,9.7-10.6,12.2-17.3c2.6-8.3,3.8-16.9,3.6-25.6v-68.2L555.1,144.5z M610.5,110
		c-0.2-4.5,1.6-8.9,4.9-12c7.7-6.3,18.8-6.3,26.5,0c6.7,6.7,6.7,17.5,0,24.2c-3.6,3.2-8.3,4.9-13.2,4.7c-4.8,0.2-9.6-1.5-13.2-4.7
		c-3.4-3.2-5.3-7.6-5.1-12.3L610.5,110z M645,266.1h-32.8V144.3h32.6L645,266.1z M704.6,266.1H672V93.3h32.6V266.1z M724.9,204.4
		c-0.8-16.2,3.8-32.2,13-45.5c8.1-11,21.2-17.4,34.9-16.8c11.3-0.3,22.1,4.6,29.3,13.3V93.3h32.6v172.8h-29.3l-1.6-12.9
		c-7.4,9.8-19,15.5-31.2,15.2c-13.7,0.4-26.7-6-34.7-17.1c-9.4-13.8-14-30.3-13-47L724.9,204.4L724.9,204.4z M757.4,206.8
		c-0.6,9.1,1.5,18.3,5.9,26.3c3.7,5.9,10.3,9.4,17.3,9.1c9,0.5,17.3-4.6,21-12.8v-48.2c-3.6-8.2-12-13.3-21-12.7
		c-15.5-0.1-23.3,12.6-23.3,38.1V206.8z M858.1,109.9c-0.1-4.5,1.7-8.9,5-12c7.7-6.3,18.8-6.3,26.5,0c6.7,6.7,6.7,17.5,0,24.2
		c-3.6,3.2-8.3,4.9-13.2,4.7c-4.8,0.2-9.6-1.5-13.2-4.7C859.8,118.9,857.9,114.5,858.1,109.9z M893,265.9h-32.6V144.3H893V265.9z
		 M1473.7,204.3c-0.8-16.1,3.6-32,12.8-45.3c8.1-11.1,21.2-17.4,34.9-16.8c11.3-0.2,22.1,4.6,29.3,13.3V93.3h32.4v172.8h-29.3
		l-1.6-12.9c-7.4,9.8-19,15.4-31.2,15.2c-13.6,0.4-26.5-6-34.5-17c-9.5-13.8-14.1-30.4-13.1-47.1L1473.7,204.3L1473.7,204.3z
		 M1506.2,206.6c-0.6,9.1,1.5,18.3,5.9,26.3c3.7,6,10.3,9.5,17.3,9.1c8.9,0.5,17.3-4.6,21-12.8v-48c-3.6-8.2-12-13.3-21-12.7
		c-15.7-0.1-23.6,12.6-23.6,38.1L1506.2,206.6L1506.2,206.6z M1422.4,188.2h-14.9c-14.6-0.9-29.1,2.8-41.5,10.5
		c-9.5,8.3-14.7,20.5-14,33.1c-0.2,10,4.1,19.6,11.7,26.1c8.3,7,18.8,10.7,29.7,10.3c1.7,0.1,3.3,0.1,5,0c10.3-1.2,19.8-6.6,26-15
		l1.5,13h29.4v-81.2c0.6-12.1-4.2-23.8-13.3-31.8c-10.1-8-22.8-11.9-35.6-11.2c-25.5,0-43.8,11.9-48.1,17.9
		c4.7,5.5,9.3,11.2,14,16.6c0,0,11.2-6.6,12.2-7c12.6-5.5,31.2-5.9,36.5,9.6C1422.1,182.1,1422.5,185.1,1422.4,188.2L1422.4,188.2z
		 M1422.4,231.6c-2.1,3.7-5.2,6.7-9,8.6c-4.1,2.2-8.6,3.3-13.2,3.2c-4.3,0.2-8.4-1.2-11.7-4c-2.8-2.5-4.4-6.2-4.3-10v-1.9
		c1.1-11.2,9.7-20.3,26-20.3h12.3L1422.4,231.6z M1672.8,188.2h-14.9c-14.6-0.9-29,2.8-41.4,10.5c-9.5,8.3-14.7,20.5-14,33.1
		c-0.2,10,4.1,19.6,11.7,26.1c8.2,7,18.8,10.7,29.6,10.3c1.7,0.1,3.3,0.1,5,0c10.4-1.2,19.8-6.6,26.1-15l1.5,13h29.3v-81.2
		c0.6-12.1-4.2-23.8-13.3-31.8c-10.1-8-22.8-12-35.6-11.2c-25.5,0-43.7,11.9-48.1,17.9c4.8,5.5,9.3,11.2,14,16.6
		c0,0,11.2-6.6,12.2-7c12.7-5.5,31.2-5.9,36.5,9.6c0.9,2.9,1.3,6,1.2,9L1672.8,188.2z M1672.8,231.6c-2.1,3.7-5.2,6.7-9,8.6
		c-4.1,2.1-8.7,3.3-13.3,3.2c-4.3,0.2-8.4-1.2-11.7-4c-2.8-2.5-4.4-6.2-4.3-10v-1.9c1.1-11.2,9.7-20.3,26-20.3h12.2L1672.8,231.6z
		 M1784.5,142.1c-13.6-0.6-27,3.7-37.7,12.2c-5.5,4.7-9.7,10.6-12.3,17.3c-2.6,8.2-3.8,16.9-3.6,25.5v68.9h32.5v-69.9
		c0-23.7,12.4-26.5,21-26.5h19v-27.4C1797.2,141.9,1790.9,142.1,1784.5,142.1L1784.5,142.1z M1305.1,189.8
		c9-3.9,16.6-10.3,21.9-18.5c5-8,7.5-17.3,7-26.7c0.8-14.4-5-28.4-15.7-37.9c-12.8-9.7-28.7-14.5-44.8-13.4h-60.6v172.8h33.7v-62.9
		h28.7l28.8,62.9h36.2v-1.5L1305.1,189.8z M1274,174.4h-27.2v-52.7h27.1c7.4-0.6,14.7,2,20.2,7c4.6,5.2,7,12,6.6,18.9
		c1.1,13.8-9.2,25.8-23,26.9C1276.4,174.4,1275.1,174.4,1274,174.4L1274,174.4z"/>
	<path id="Zeichen_00000138536156825414907100000005157987693755912378_" class="st1" d="M32.4,123.1v113.2c0.1,2.3,2,4.1,4.3,4.1
		c1,0,1.9-0.4,2.7-1.1l20-20l13.6-13.5c0.8-0.8,1.3-1.9,1.3-3v-61.3l54.1-37.2c1.1-0.8,1.8-2.1,1.8-3.5V60.2c0-2.3-1.9-4.2-4.2-4.2
		c-0.8,0-1.6,0.3-2.3,0.7l-88.1,60.6C33.5,118.6,32.4,120.8,32.4,123.1z M158.1,60.2v40.7c0,1.4,0.7,2.7,1.8,3.5l54.1,37.1v61.3
		c0,1.1,0.5,2.2,1.3,3l33.5,33.5c1.7,1.5,4.4,1.4,5.9-0.3c0.7-0.7,1-1.7,1.1-2.7V123.1c0-2.3-1.1-4.5-3-5.8l-88.1-60.8
		c-1.9-1.3-4.5-0.8-5.8,1.1C158.4,58.3,158.1,59.2,158.1,60.2L158.1,60.2L158.1,60.2z M92.8,225.4l-33.5,33.7
		c-1.5,1.7-1.4,4.4,0.3,5.9c0.7,0.7,1.7,1,2.7,1.1h163.9c2.3-0.1,4.1-2,4.1-4.3c0-1-0.4-1.9-1.1-2.7l-33.5-33.5
		c-0.8-0.8-1.9-1.3-3-1.3H95.8C94.7,224.3,93.6,224.7,92.8,225.4z"/>
</g>
</svg>
